<svg width="347" height="347" viewBox="0 0 347 347" fill="none" xmlns="http://www.w3.org/2000/svg">
<path d="M22.396 72.4001H275.442V79.022H22.396V72.4001Z" fill="#4D82B6"/>
<path d="M22.396 153.266H275.442V159.887H22.396V153.266Z" fill="#4D82B6"/>
<path d="M52.1801 25.9419H63.5516V72.4001H52.1801V25.9419Z" fill="#FDD57C"/>
<path d="M52.1801 67.3831H63.5516V69.935H52.1801V67.3831Z" fill="#66B19B"/>
<path d="M52.1801 62.2359H63.5516V64.7878H52.1801V62.2359Z" fill="#66B19B"/>
<path d="M63.5516 29.7516H68.7638V72.4001H63.5516V29.7516Z" fill="#4D82B6"/>
<path d="M63.5516 49.1692H68.7638V61.9648H63.5516V49.1692Z" fill="#66B19B"/>
<path d="M68.7638 29.7516H78.7148V72.4001H68.7638V29.7516Z" fill="#66B19B"/>
<path d="M70.7772 34.7253H76.7015V67.4228H70.7772V34.7253Z" fill="#4D82B6"/>
<path d="M81.7944 62.4492H117.337V72.4001H81.7944V62.4492Z" fill="#66B19B"/>
<path d="M81.7944 62.4492H101.7V72.4001H81.7944V62.4492Z" fill="#4D82B6"/>
<path d="M81.7944 54.3922H112.598V62.4491H81.7944V54.3922Z" fill="#FDD57C"/>
<path d="M86.2982 54.3922H94.8286V62.4491H86.2982V54.3922Z" fill="#66B19B"/>
<path d="M142.516 61.3069C142.516 61.3069 140.401 45.1967 140.672 37.0675C140.774 33.9192 141.699 29.9866 145.017 30.4131C147.475 30.7312 148.198 33.4638 148.451 35.7229C149.145 41.9653 146.329 61.0431 146.329 61.0431L142.516 61.3069Z" fill="#66B19B"/>
<path d="M142.133 44.6907C142.133 44.6907 137.911 44.7016 136.523 42.9774C134.206 40.1002 136.559 33.7891 133.255 33.2578C131.762 33.0156 130.223 34.1542 129.67 35.7844C128.733 38.5351 129.207 41.8135 130.638 44.3401C131.809 46.4113 134.094 47.6511 136.425 48.1101C138.757 48.5728 143.528 48.139 143.528 48.139L142.133 44.6907Z" fill="#66B19B"/>
<path d="M146.322 38.7086C146.322 38.7086 151.715 38.0109 152.503 35.1771C153.522 31.53 150.587 26.4877 153.381 24.8683C155.539 23.6177 159.371 25.6671 158.467 33.7819C157.245 44.81 145.491 42.2039 145.491 42.2039L146.322 38.7086Z" fill="#66B19B"/>
<path d="M126.597 63.0853V52.885H161.189V63.0853C161.189 68.2289 157.021 72.4001 151.878 72.4001H135.908C130.768 72.4001 126.597 68.2289 126.597 63.0853Z" fill="#4D82B6"/>
<mask id="mask0_18_109" style="mask-type:luminance" maskUnits="userSpaceOnUse" x="197" y="12" width="50" height="62">
<path d="M197.096 12.2173H246.139V73.1013H197.096V12.2173Z" fill="white"/>
</mask>
<g mask="url(#mask0_18_109)">
<path d="M197.324 12.2173H245.658V72.4001H197.324V12.2173Z" fill="#66B19B"/>
</g>
<path d="M201.911 16.0054H241.071V68.612H201.911V16.0054Z" fill="#4D82B6"/>
<path d="M178.607 29.3034H216.04V72.4001H178.607V29.3034Z" fill="#FDD57C"/>
<path d="M182.161 32.0144H212.487V69.6892H182.161V32.0144Z" fill="#4D82B6"/>
<path d="M78.3822 100.822H93.0719V153.266H78.3822V100.822Z" fill="#66B19B"/>
<path d="M93.0719 105.405H102.293V153.266H93.0719V105.405Z" fill="#FDD57C"/>
<path d="M102.293 103.507H111.513V153.266H102.293V103.507Z" fill="#4D82B6"/>
<path d="M111.513 106.352H126.221V153.266H111.513V106.352Z" fill="#66B19B"/>
<path d="M111.513 133.837H126.221V153.266H111.513V133.837Z" fill="#FDD57C"/>
<path d="M126.221 100.822H137.123V153.266H126.221V100.822Z" fill="#66B19B"/>
<path d="M137.123 102.087H143.991V153.266H137.123V102.087Z" fill="#4D82B6"/>
<path d="M58.5526 135.193C54.3489 130.646 52.0464 123.33 52.5307 116.057C53.4597 119.943 54.9019 123.593 56.6947 126.836C55.8815 121.139 56.4236 116.126 58.043 110.563C58.6683 116.144 59.5972 120.572 61.0286 125.845C60.5949 119.954 62.2793 114.044 63.9347 108.387C64.7986 114.405 65.6661 120.521 65.2143 126.698C66.7216 121.674 67.824 116.465 68.4964 111.192C69.7109 116.682 69.8012 122.646 68.7566 128.343C71.2398 124.54 72.9206 119.885 73.5495 115.056C74.3737 118.916 73.9363 123.207 72.6314 126.98C71.3266 130.75 69.1976 134.025 66.6132 136.501L58.5526 135.193Z" fill="#66B19B"/>
<path d="M53.6946 135.908L56.6839 151.541C56.8719 152.543 57.7466 153.266 58.7659 153.266H67.6686C68.6879 153.266 69.5627 152.543 69.7542 151.541L72.7399 135.908C72.9893 134.603 71.988 133.389 70.6543 133.389H55.7803C54.4465 133.389 53.4452 134.603 53.6946 135.908Z" fill="#FDD57C"/>
<path d="M251.647 327.196C251.853 327.091 250.96 320.086 251.21 319.269C254.235 309.361 262.336 277.343 258.255 260.391C257.3 256.422 255.793 252.576 255.316 248.517C253.23 230.798 269.601 209.024 271.441 179.916C272.153 168.675 245.061 159.327 243.301 168.006C240.919 179.75 237.702 218.227 237.034 238.226C236.253 261.667 240.265 294.672 236.155 318.282C236.155 318.282 219.868 322.999 220.764 327.152C221.22 329.249 248.972 328.587 251.647 327.196Z" fill="#FBD5C0"/>
<path d="M251.647 327.196C251.853 327.091 250.96 320.086 251.21 319.269C254.235 309.361 262.336 277.343 258.255 260.391C257.3 256.422 255.793 252.576 255.316 248.517C253.23 230.798 269.601 209.024 271.441 179.916C272.153 168.675 245.061 159.327 243.301 168.006C240.919 179.75 237.702 218.227 237.034 238.226C236.253 261.667 240.265 294.672 236.155 318.282C236.155 318.282 219.868 322.999 220.764 327.152C221.22 329.249 248.972 328.587 251.647 327.196Z" fill="#FBD5C0"/>
<path d="M320.18 318.886C320.386 318.785 315.904 312.076 315.875 311.223C315.517 300.867 312.77 267.956 303.405 253.249C301.21 249.807 298.536 246.659 296.765 242.976C289.033 226.898 297.44 200.982 289.723 172.857C286.741 161.995 258.081 161.959 259.238 170.738C260.803 182.62 270.266 220.052 276.132 239.184C283.007 261.609 297.531 291.516 301.315 315.181C301.315 315.181 286.749 327.199 289.752 330.203C291.426 331.877 316.598 320.693 320.18 318.886Z" fill="#FBD5C0"/>
<path d="M253.277 328.208L252.19 320.95C252.132 320.556 251.759 320.288 251.365 320.357C249.768 320.642 239.665 323.755 239.665 323.755C239.665 323.755 237.334 318.427 235.787 316.262C235.226 315.47 234.156 315.231 233.332 315.741C228.424 318.781 224.983 318.882 218.993 320.953C215.462 322.175 214.8 325.75 214.5 328.273L253.277 328.208Z" fill="#FDD57C"/>
<path d="M214.5 328.273C214.377 329.303 215.191 330.203 216.228 330.203H251.561C252.62 330.203 253.433 329.26 253.277 328.208L253.165 327.474H214.612C214.569 327.752 214.529 328.023 214.5 328.273Z" fill="#4D82B6"/>
<path d="M222.839 323.581C222.741 323.581 222.651 323.523 222.615 323.426L221.57 320.577C221.527 320.458 221.588 320.321 221.711 320.274C221.834 320.23 221.972 320.292 222.015 320.415L222.984 323.05L235.985 318.904C236.112 318.864 236.246 318.933 236.285 319.056C236.325 319.182 236.256 319.316 236.13 319.356L222.908 323.57C222.886 323.578 222.861 323.581 222.839 323.581Z" fill="#4D82B6"/>
<path d="M321.326 319.114L317.682 312.741C317.483 312.394 317.042 312.278 316.699 312.488C315.315 313.33 307.023 319.891 307.023 319.891C307.023 319.891 302.92 315.77 300.694 314.31C299.884 313.778 298.803 313.941 298.218 314.715C294.744 319.323 291.574 320.668 286.738 324.767C283.889 327.181 284.569 330.756 285.201 333.218L321.326 319.114Z" fill="#FDD57C"/>
<mask id="mask1_18_109" style="mask-type:luminance" maskUnits="userSpaceOnUse" x="285" y="318" width="38" height="17">
<path d="M285.003 318.315H322.016V334.927H285.003V318.315Z" fill="white"/>
</mask>
<g mask="url(#mask1_18_109)">
<path d="M285.202 333.214C285.462 334.219 286.546 334.765 287.511 334.389L320.444 321.597C321.434 321.21 321.85 320.035 321.322 319.114L320.953 318.47L285.014 332.43C285.075 332.708 285.14 332.972 285.202 333.214Z" fill="#4D82B6"/>
</g>
<path d="M291.191 325.84C291.122 325.84 291.057 325.815 291.01 325.761L289.008 323.484C288.921 323.386 288.932 323.234 289.029 323.151C289.127 323.064 289.275 323.071 289.362 323.169L291.216 325.276L301.836 316.699C301.937 316.619 302.089 316.634 302.172 316.735C302.252 316.836 302.237 316.988 302.136 317.068L291.339 325.786C291.296 325.822 291.241 325.84 291.191 325.84Z" fill="#4D82B6"/>
<path d="M241.675 154.722C236.448 179.475 230.415 209.74 230.274 237.742C230.169 259.108 223.07 304.615 221.245 321.561C222.131 321.402 244.414 327.149 259.223 325.428C260.799 310.829 262.552 277.564 262.336 270.172C261.895 255.135 256.766 247.653 258.034 238.678C259.711 226.819 272.811 204.596 272.854 184.159C272.872 174.292 268.151 155.799 268.151 155.799C268.151 155.799 241.541 154.643 241.675 154.722Z" fill="#66B19B"/>
<mask id="mask2_18_109" style="mask-type:luminance" maskUnits="userSpaceOnUse" x="252" y="150" width="75" height="170">
<path d="M252.616 150.829H326.082V319.24H252.616V150.829Z" fill="white"/>
</mask>
<g mask="url(#mask2_18_109)">
<path d="M253.382 158.706C256.722 185.735 260.001 218.993 269.872 247.393C276.165 265.495 283.257 303.206 289.694 319.233C290.07 318.857 324.843 316.703 326.122 315.716C322.985 299.906 312.661 266.529 309.741 259.39C304.514 246.619 297.78 241.302 296.139 232.786C293.873 221.028 299.038 195.751 292.434 176.41C289.246 167.073 278.771 151.119 278.771 151.119C278.771 151.119 253.23 158.677 253.382 158.706Z" fill="#66B19B"/>
</g>
<path d="M227.693 71.2145C223.132 63.3203 230.784 54.8368 235.338 54.273C240.059 53.691 243.8 54.6417 247.241 57.1393C241.4 62.0732 234.138 66.7107 227.693 71.2145Z" fill="#11406A"/>
<path d="M227.162 75.4038C227.375 70.947 225.977 65.9517 229.374 61.5383C235.667 53.3585 245.224 55.6429 248.897 63.4359C251.185 68.2939 252.052 76.0906 248.658 81.6137C245.578 86.6307 237.525 91.5682 231.984 90.2453C228.662 89.4537 226.779 83.4354 227.162 75.4038Z" fill="#FBD5C0"/>
<path d="M240.634 81.5342C240.865 82.839 243.189 94.7021 243.692 101.664C248.763 100.417 256.704 98.1215 261.374 95.2081C257.145 90.5164 253.903 78.8088 253.444 71.5688C252.58 72.2519 241.407 80.8438 240.634 81.5342Z" fill="#FBD5C0"/>
<path d="M231.547 70.8061C232.212 70.9109 232.374 71.8579 232.349 72.4435C232.331 72.8736 232.125 73.9255 231.409 73.8134C230.712 73.7014 230.466 73.0796 230.556 71.9844C230.654 70.8748 231.286 70.7663 231.547 70.8061Z" fill="#11406A"/>
<path d="M231.514 74.0592C231.467 74.0592 231.42 74.0556 231.373 74.0484C230.162 73.8568 230.281 72.4326 230.321 71.9664C230.408 70.9326 230.965 70.5639 231.453 70.5639C231.5 70.5639 231.547 70.5675 231.583 70.5747C232.432 70.7049 232.613 71.8182 232.584 72.4543C232.562 73.011 232.306 74.0592 231.514 74.0592ZM231.453 71.0374C231.279 71.0374 230.867 71.1314 230.795 72.0061C230.686 73.2929 231.084 73.5242 231.445 73.5785C231.919 73.6508 232.096 72.8302 232.11 72.4363C232.136 71.9158 231.995 71.1169 231.51 71.041C231.496 71.041 231.474 71.0374 231.453 71.0374Z" fill="#11406A"/>
<path d="M234.135 71.8435C232.964 72.2881 231.272 72.5302 229.595 72.1688C229.595 72.1688 229.006 69.5265 231.395 69.3602C233.459 69.2157 234.135 71.8435 234.135 71.8435Z" fill="#FBD5C0"/>
<path d="M231.044 72.4977C230.495 72.4977 229.981 72.4616 229.562 72.4037C229.432 72.3857 229.342 72.2664 229.36 72.1363C229.378 72.0061 229.494 71.9194 229.627 71.9338C230.788 72.0965 232.671 72.0676 234.059 71.6158C234.185 71.576 234.319 71.6447 234.359 71.7712C234.399 71.8941 234.33 72.0278 234.207 72.0676C233.253 72.3748 232.078 72.4977 231.044 72.4977Z" fill="#11406A"/>
<path d="M235.27 69.5482C231.76 69.1759 228.753 70.1193 228.753 70.1193C228.753 70.1193 228.565 69.0819 228.948 68.9229C232.053 67.6614 234.33 68.8614 235.27 69.5482Z" fill="#11406A"/>
<path d="M229.353 83.5655C229.143 83.5655 228.966 83.533 228.839 83.4679C228.724 83.4101 228.677 83.2655 228.738 83.1499C228.796 83.0342 228.94 82.9872 229.056 83.0486C229.19 83.1173 229.642 83.1245 230.227 82.9294C230.672 82.7775 231.774 82.2968 232.345 81.1004C232.4 80.9847 232.541 80.9341 232.66 80.9883C232.779 81.0462 232.83 81.1871 232.772 81.3064C232.316 82.2643 231.442 83.0197 230.375 83.3776C230.007 83.5005 229.649 83.5655 229.353 83.5655Z" fill="#11406A"/>
<path d="M269.333 91.2429C260.127 86.4789 246.121 87.5524 236.155 97.5178C230.159 103.514 226.096 118.244 231.988 138.337C235.505 150.338 240.276 161.402 240.276 161.402L282.989 158.705C282.989 158.705 292.225 103.081 269.333 91.2429Z" fill="#4D82B6"/>
<path d="M227.795 73.4483C226.949 75.6966 224.787 76.0183 224.787 77.1135C224.787 78.4401 226.504 78.7835 227.701 79.5064" fill="#FBD5C0"/>
<path d="M227.701 79.7413C227.657 79.7413 227.618 79.7305 227.578 79.7088C227.278 79.5281 226.938 79.3654 226.605 79.21C225.593 78.7365 224.552 78.2485 224.552 77.1135C224.552 76.4991 225.058 76.1123 225.651 75.6641C226.313 75.158 227.133 74.5327 227.574 73.3652C227.621 73.2423 227.759 73.1773 227.881 73.2242C228.001 73.2712 228.066 73.4086 228.019 73.5315C227.531 74.8255 226.645 75.4978 225.937 76.04C225.405 76.4448 225.026 76.734 225.026 77.1135C225.026 77.9449 225.85 78.3353 226.804 78.7799C227.148 78.9425 227.502 79.1088 227.824 79.304C227.936 79.369 227.972 79.5172 227.903 79.6293C227.86 79.7016 227.78 79.7413 227.701 79.7413Z" fill="#FBD5C0"/>
<path d="M230.502 56.702C228.518 60.0744 231.449 63.8299 234.901 65.6734C236.6 66.5842 240.467 68.1819 241.36 71.1784C242.13 73.7664 243.916 73.6688 244.527 72.2411C245.177 70.7229 247.368 68.612 250.198 69.9205C252.598 71.0302 250.809 78.0678 253.664 78.5232C259.646 79.4811 264.7 69.0349 259.422 59.9551C251.152 45.7281 233.77 51.15 230.502 56.702Z" fill="#11406A"/>
<path d="M244.23 72.9821C244.881 70.8242 247.812 67.6216 250.679 69.3169C251.665 69.8988 252.255 71.0338 252.341 72.1796C252.471 73.9038 250.039 80.4209 245.831 79.2714C244.353 78.8666 243.475 75.5014 244.23 72.9821Z" fill="#FBD5C0"/>
<path d="M245.333 75.2159C245.329 75.2159 245.325 75.2159 245.322 75.2159C245.192 75.2087 245.09 75.0966 245.094 74.9665C245.192 72.8519 247.245 70.7446 249.24 70.7085C249.37 70.7193 249.479 70.8133 249.479 70.9434C249.482 71.0736 249.377 71.182 249.247 71.182C247.509 71.2145 245.654 73.1339 245.568 74.9882C245.56 75.1147 245.459 75.2159 245.333 75.2159Z" fill="#11406A"/>
<path d="M264.013 220.356C263.991 220.356 263.969 220.352 263.948 220.345C263.821 220.312 263.749 220.182 263.785 220.056C264.02 219.217 265.119 216.673 266.637 213.148C270.158 204.979 276.049 191.313 276.776 185.555C277.502 179.818 275.514 174.006 274.94 173.037C274.875 172.925 274.911 172.781 275.023 172.712C275.135 172.647 275.283 172.683 275.348 172.795C275.937 173.793 277.987 179.76 277.246 185.612C276.512 191.439 270.602 205.146 267.071 213.333C265.618 216.709 264.468 219.373 264.24 220.182C264.212 220.287 264.118 220.356 264.013 220.356Z" fill="#11406A"/>
<path d="M284.634 160.647L283.304 156.577C283.304 156.577 274.712 159.1 267.439 156.981C262.411 155.517 238.519 127.215 238.519 127.215C238.519 127.215 229.031 137.582 228.615 137.914C231.98 145.415 236.741 153.526 236.246 161.398C235.027 180.722 222.694 232.635 222.694 232.635C222.694 232.635 241.255 233.43 242.477 232.942C246.149 202.764 259.827 167.843 275.955 161.398C279.021 160.177 284.634 160.647 284.634 160.647Z" fill="#FDD57C"/>
<path d="M237.254 100.764L202.76 136.57L153.222 142.599L150.721 153.266C150.721 153.266 200.772 158.781 210.054 155.355C230.256 147.894 254.261 119.52 254.261 119.52L237.254 100.764Z" fill="#FBD5C0"/>
<path d="M177.252 138.42C175.521 137.86 162.862 140.354 154.523 141.045C153.511 141.135 144.598 139.671 142.172 140.6C139.136 141.764 136.411 143.832 134.596 146.709C133.313 148.747 133.161 152.709 132.97 153.266C133.559 153.172 148.079 153.71 151.437 154.028C154.921 154.357 175.781 156.237 176.666 156.577C177.053 154.86 177.031 139.606 177.252 138.42Z" fill="#FDD57C"/>
<path d="M205.294 130.833C216.593 116.769 232.7 97.3949 241.483 93.2382C246.218 90.9971 263.912 94.3514 258.352 114.864C256.628 121.237 247.913 134.943 227.213 151.993C220.078 146.647 205.923 132.25 205.294 130.833Z" fill="#4D82B6"/>
<path d="M276.031 159.262C276.031 159.262 270.049 174.433 271.253 176.178C271.889 177.096 274.741 176.93 274.741 176.93C274.741 176.93 275.442 183.802 275.793 187.239C277.383 187.199 278.974 187.163 280.564 187.123C280.257 186.632 279.299 171.534 279.299 171.534L283.101 187.149L286.799 186.585L284.558 175.6C284.558 175.6 287.681 175.235 288.057 173.514C288.693 170.612 286.199 164.858 279.433 158.807C278.984 158.955 276.031 159.262 276.031 159.262Z" fill="#FDD57C"/>
<path d="M264.562 70.2097C264.562 70.2097 262.13 68.106 259.202 69.7795C256.1 71.5543 256.852 75.7725 256.932 76.2786C256.393 76.3075 254.047 76.0002 252.891 78.6027C251.391 81.9752 253.765 83.9415 253.765 83.9415C253.765 83.9415 251.749 86.6741 253.914 89.7682C255.099 91.4598 259.346 91.6622 259.346 91.6622C259.346 91.6622 259.137 94.9226 262.65 95.772C264.551 96.2311 267.974 93.9213 267.974 93.9213C267.974 93.9213 270.013 95.7648 272.287 95.4828C275.334 95.1033 276.364 92.2333 276.364 92.2333C276.364 92.2333 279.035 93.0213 280.9 90.014C282.556 87.3428 280.875 84.9789 280.875 84.9789C280.875 84.9789 283.434 82.9908 282.476 79.9401C281.464 76.7159 278.03 76.481 278.03 76.481C278.03 76.481 278.504 73.5821 276.122 72.2194C274 71.0049 271.481 72.3893 271.481 72.3893C271.481 72.3893 270.884 69.353 269.041 68.7675C266.463 67.947 264.562 70.2097 264.562 70.2097Z" fill="#11406A"/>
<path d="M93.5309 244.7L107.946 191.096L160.813 204.773L146.398 258.378L93.5309 244.7Z" fill="#66B19B"/>
<path d="M99.1625 241.357L111.163 196.724L155.185 208.113L143.181 252.75L99.1625 241.357Z" fill="#4D82B6"/>
<path d="M109.07 235.479L116.827 206.635L145.274 213.994L137.517 242.839L109.07 235.479Z" fill="#FDD57C"/>
<path d="M65.0914 291.249C89.7573 294.296 127.132 299.157 139.628 303.083C154.505 307.753 147.869 330.243 138.569 330.243H48.4318C20.8923 330.243 28.0925 302.765 28.0925 302.765C28.0925 302.765 63.5588 291.057 65.0914 291.249Z" fill="#66B19B"/>
<path d="M93.1623 197.494C93.5526 194.006 94.3478 188.045 90.9501 183.628C84.6571 175.452 75.1038 177.733 71.4314 185.529C69.1434 190.387 68.2759 198.18 71.6663 203.707C74.746 208.72 79.9401 213.13 88.344 212.339C91.7417 212.017 92.7285 201.372 93.1623 197.494Z" fill="#FBD5C0"/>
<path d="M79.6943 203.628C79.4594 204.929 77.1352 216.792 76.6328 223.757C71.5651 222.51 62.9118 219.976 58.2418 217.063C62.4708 212.371 64.7661 200.425 65.2251 193.185C66.089 193.872 78.9208 202.937 79.6943 203.628Z" fill="#FBD5C0"/>
<path d="M47.6764 218.545C58.7406 210.137 75.1797 208.76 84.1728 219.611C91.6008 228.575 88.3802 266.879 85.0186 294.589C83.0487 310.833 35.7844 326.09 25.8443 315.282C21.3875 310.439 24.8214 235.913 47.6764 218.545Z" fill="#4D82B6"/>
<path d="M91.0947 191.096C92.8189 189.021 92.5189 186.422 92.5189 186.422C92.5189 186.422 94.6732 186.028 94.6732 182.367C94.6732 178.868 92.0237 178.401 91.767 178.271C91.8791 177.877 91.5393 176.117 90.2164 175.062C88.8971 174.002 87.0066 173.706 85.4234 174.31C84.7258 172.64 83.1607 171.36 81.3859 171.013C79.6112 170.663 77.6774 171.255 76.4014 172.539C75.0062 171.096 72.964 170.2 70.9687 170.399C67.524 170.746 66.8842 172.737 66.6204 173.095C66.2192 173.07 63.5263 172.517 61.7949 174.4C60.6455 175.651 59.7093 177.917 60.2262 179.533C58.69 180.187 57.5044 181.608 57.1393 183.234C56.7706 184.864 57.2333 186.653 58.3394 187.904C57.067 189.003 56.3441 190.702 56.4236 192.379C56.5068 194.06 57.3923 195.679 58.7659 196.651C57.4466 198.838 58.3068 201.307 60.2406 202.977C61.4515 204.022 63.0058 203.765 63.0058 203.765C63.0058 203.765 63.4287 205.634 64.9757 206.602C66.2661 207.408 68.4783 207.947 70.5277 205.905C71.7567 206.989 74.1821 206.978 75.7219 206.418C77.2617 205.854 78.0425 204.188 78.2846 202.565C79.8823 202.822 82.9474 202.319 84.1439 200.729C86.0632 198.177 85.5608 194.32 85.5608 194.32C85.5608 194.32 87.9934 194.819 91.0947 191.096Z" fill="#11406A"/>
<path d="M88.9368 195.072C88.2862 192.918 85.3584 189.711 82.492 191.407C81.5016 191.992 80.9124 193.127 80.8293 194.273C80.6956 195.997 83.1282 202.514 87.3392 201.365C88.8139 200.96 89.6959 197.595 88.9368 195.072Z" fill="#FBD5C0"/>
<path d="M87.838 197.306C87.7115 197.306 87.6067 197.208 87.5994 197.082C87.5163 195.227 85.6584 193.304 83.9198 193.275C83.7897 193.272 83.6848 193.167 83.6884 193.033C83.6921 192.903 83.7933 192.809 83.9306 192.802C85.9259 192.838 87.979 194.945 88.0729 197.06C88.0802 197.19 87.979 197.302 87.8488 197.306C87.8452 197.306 87.8416 197.306 87.838 197.306Z" fill="#11406A"/>
<path d="M24.684 311.378C25.3418 311.707 32.1842 310.149 35.4301 308.747C38.6797 307.344 75.3713 264.75 91.6947 245.557C91.026 261.193 87.1368 292.366 87.1368 292.366C87.1368 292.366 131.271 299.548 135.59 301.662C134.025 309.513 117.084 327.929 112.489 328.508C105.141 329.433 26.4985 321.759 25.3201 316.189C24.8719 314.053 24.5864 312 24.684 311.378Z" fill="#FDD57C"/>
<path d="M147.067 238.769C146.962 238.938 127.1 262.961 127.1 262.961L89.1537 223.97L80.0088 250.357C80.0088 250.357 120.673 293.099 131.665 289.749C137.145 288.079 151.552 270.736 162.009 241.62L147.067 238.769Z" fill="#FBD5C0"/>
<path d="M130.877 257.243C132.659 253.946 144.945 239.907 145.545 238.884C145.191 233.119 145.238 232.313 145.379 228.745C145.563 224.202 146.015 219.181 147.677 219.181C150.367 219.181 150.941 224.628 151.733 229.363C153.24 223.584 159.421 209.953 159.421 209.953C159.421 209.953 161.069 211.059 161.171 212.61C161.337 215.183 160.527 218.541 160.422 218.632C160.325 218.534 161.673 218.484 162.472 219.286C163.874 220.688 163.585 221.762 163.672 222.015C165.707 222.015 166.191 224.711 166.264 224.737C167.677 225.192 167.908 226.793 167.995 228.21C168.136 230.516 163.126 240.619 162.009 243.28C160.979 245.73 153.034 268.296 151.686 268.672C150.168 269.099 130.186 258.519 130.877 257.243Z" fill="#FDD57C"/>
<path d="M76.9762 214.019C88.9585 216.915 121.009 250.993 121.009 250.993L100.196 276.747C100.196 276.747 69.4253 250.859 65.5143 237.279C62.6082 227.191 67.2132 211.663 76.9762 214.019Z" fill="#4D82B6"/>
<path d="M158.742 226.848C158.72 226.848 158.702 226.844 158.68 226.84C158.554 226.804 158.478 226.678 158.514 226.551C158.525 226.508 159.634 222.308 160.061 219.192C160.079 219.062 160.198 218.971 160.328 218.99C160.459 219.008 160.549 219.127 160.531 219.257C160.101 222.402 158.98 226.631 158.969 226.671C158.94 226.779 158.846 226.848 158.742 226.848Z" fill="#11406A"/>
<path d="M162.541 228.698C162.49 228.698 162.436 228.68 162.392 228.644C162.291 228.565 162.273 228.416 162.356 228.312C162.526 228.03 163.039 225.131 163.412 222.355C163.43 222.225 163.549 222.131 163.679 222.152C163.809 222.17 163.9 222.29 163.882 222.42C163.683 223.895 163.047 228.203 162.725 228.608C162.678 228.666 162.609 228.698 162.541 228.698Z" fill="#11406A"/>
<path d="M165.483 230.35C165.465 230.35 165.443 230.347 165.421 230.339C165.295 230.307 165.223 230.177 165.255 230.05C165.667 228.5 165.909 226.902 165.978 225.297C165.982 225.167 166.09 225.069 166.224 225.069C166.354 225.077 166.455 225.185 166.452 225.315C166.383 226.956 166.133 228.59 165.714 230.173C165.685 230.278 165.588 230.35 165.483 230.35Z" fill="#11406A"/>
</svg>
